<svg id="visual" viewBox="0 0 900 600" width="900" height="600" xmlns="http://www.w3.org/2000/svg" xmlns:xlink="http://www.w3.org/1999/xlink" version="1.1"><path d="M0 127L82 127L82 79L164 79L164 133L245 133L245 115L327 115L327 85L409 85L409 115L491 115L491 151L573 151L573 85L655 85L655 109L736 109L736 61L818 61L818 109L900 109L900 139L900 0L900 0L818 0L818 0L736 0L736 0L655 0L655 0L573 0L573 0L491 0L491 0L409 0L409 0L327 0L327 0L245 0L245 0L164 0L164 0L82 0L82 0L0 0Z" fill="#ffffff"></path><path d="M0 283L82 283L82 343L164 343L164 205L245 205L245 265L327 265L327 331L409 331L409 229L491 229L491 223L573 223L573 259L655 259L655 187L736 187L736 307L818 307L818 271L900 271L900 361L900 137L900 107L818 107L818 59L736 59L736 107L655 107L655 83L573 83L573 149L491 149L491 113L409 113L409 83L327 83L327 113L245 113L245 131L164 131L164 77L82 77L82 125L0 125Z" fill="#dbdbdb"></path><path d="M0 385L82 385L82 397L164 397L164 307L245 307L245 355L327 355L327 457L409 457L409 277L491 277L491 319L573 319L573 307L655 307L655 313L736 313L736 373L818 373L818 373L900 373L900 421L900 359L900 269L818 269L818 305L736 305L736 185L655 185L655 257L573 257L573 221L491 221L491 227L409 227L409 329L327 329L327 263L245 263L245 203L164 203L164 341L82 341L82 281L0 281Z" fill="#b9b9b9"></path><path d="M0 463L82 463L82 445L164 445L164 391L245 391L245 421L327 421L327 499L409 499L409 361L491 361L491 385L573 385L573 373L655 373L655 367L736 367L736 421L818 421L818 469L900 469L900 469L900 419L900 371L818 371L818 371L736 371L736 311L655 311L655 305L573 305L573 317L491 317L491 275L409 275L409 455L327 455L327 353L245 353L245 305L164 305L164 395L82 395L82 383L0 383Z" fill="#979797"></path><path d="M0 601L82 601L82 601L164 601L164 601L245 601L245 601L327 601L327 601L409 601L409 601L491 601L491 601L573 601L573 601L655 601L655 601L736 601L736 601L818 601L818 601L900 601L900 601L900 467L900 467L818 467L818 419L736 419L736 365L655 365L655 371L573 371L573 383L491 383L491 359L409 359L409 497L327 497L327 419L245 419L245 389L164 389L164 443L82 443L82 461L0 461Z" fill="#777777"></path></svg>